<svg width="95" height="37" viewBox="0 0 95 37" fill="none" xmlns="http://www.w3.org/2000/svg">
<path d="M21.5 27.0156C21.8438 27.7812 22.1406 28.5 22.3906 29.1719C22.0781 29.4844 21.6641 29.7734 21.1484 30.0391C20.6328 30.2891 20.0312 30.5156 19.3438 30.7188C19.1562 30.7656 18.9297 30.8281 18.6641 30.9062C18.4141 30.9844 18.125 31.0625 17.7969 31.1406C17.3438 31.1719 16.7969 31.2188 16.1562 31.2812C15.5312 31.3438 14.7891 31.4297 13.9297 31.5391C12.7109 32.4922 11.625 33.2422 10.6719 33.7891C9.73438 34.3359 8.94531 34.6875 8.30469 34.8438L7.95312 35.1484C7.42188 35.3828 6.77344 35.5703 6.00781 35.7109C5.25781 35.8672 4.36719 36 3.33594 36.1094C3.14844 36.0625 2.95312 35.9453 2.75 35.7578C2.5625 35.5859 2.34375 35.3359 2.09375 35.0078C2.25 34.8359 2.44531 34.6094 2.67969 34.3281C2.91406 34.0625 3.17188 33.7422 3.45312 33.3672C3.6875 33.0234 3.96094 32.75 4.27344 32.5469C4.60156 32.3281 5.01562 32.1719 5.51562 32.0781C6.03125 31.9688 6.60156 31.8125 7.22656 31.6094C7.38281 31.4844 7.57031 31.3594 7.78906 31.2344C8.02344 31.0938 8.28125 30.9297 8.5625 30.7422C8.92188 30.5703 9.29688 30.3281 9.6875 30.0156C10.0781 29.7031 10.5078 29.3203 10.9766 28.8672C11.6016 28.2578 12.1016 27.7734 12.4766 27.4141C12.8516 27.0391 13.0781 26.8047 13.1562 26.7109C13.2812 26.4922 13.4141 26.2969 13.5547 26.125C13.6953 25.9375 13.8672 25.7656 14.0703 25.6094C14.2891 25.2344 14.5625 24.7656 14.8906 24.2031C15.2188 23.625 15.6094 22.9609 16.0625 22.2109C16.1406 22.1328 16.2344 22.0234 16.3438 21.8828C16.4688 21.7266 16.6094 21.5625 16.7656 21.3906C17.0781 21.0312 17.3047 20.4844 17.4453 19.75C17.5859 19.0156 17.6562 18.125 17.6562 17.0781C17.6562 16.3594 17.4688 15.6094 17.0938 14.8281C16.7344 14.0469 16.1719 13.2188 15.4062 12.3438C14.7656 11.625 14.0859 10.9844 13.3672 10.4219C12.6484 9.84375 11.9219 9.375 11.1875 9.01562C10.625 8.73438 10.0938 8.46094 9.59375 8.19531C9.10938 7.91406 8.66406 7.66406 8.25781 7.44531C8.03906 8.22656 7.75781 9.30469 7.41406 10.6797C7.08594 12.0547 6.71094 13.7266 6.28906 15.6953C5.82031 17.9141 5.46875 19.7031 5.23438 21.0625C5 22.4219 4.88281 23.3359 4.88281 23.8047C4.78906 24.1953 4.71094 24.5859 4.64844 24.9766L3.71094 29.5938C3.16406 30.6562 2.69531 31.4453 2.30469 31.9609C1.91406 32.4766 1.60938 32.7344 1.39062 32.7344C1.28125 32.7344 1.17969 32.6484 1.08594 32.4766C0.992188 32.2891 0.898438 32 0.804688 31.6094L1.08594 30.2734C1.03906 30.1797 0.992188 30.0469 0.945312 29.875C1.03906 28.8594 1.125 27.8359 1.20312 26.8047C1.28125 25.7578 1.36719 24.7188 1.46094 23.6875C1.53906 22.5312 1.65625 21.4453 1.8125 20.4297C1.96875 19.4141 2.14062 18.4766 2.32812 17.6172L2.04688 16.4219C2.15625 16.125 2.25 15.7578 2.32812 15.3203C2.42188 14.8828 2.5 14.3828 2.5625 13.8203C2.625 13.1016 2.67969 12.5234 2.72656 12.0859C2.77344 11.6328 2.82812 11.3203 2.89062 11.1484C2.95312 10.9453 3.01562 10.6875 3.07812 10.375C3.15625 10.0625 3.24219 9.6875 3.33594 9.25C3.38281 9.07813 3.65625 8.75 4.15625 8.26562C4.65625 7.76563 4.97656 7.39063 5.11719 7.14062C5.44531 7.09375 5.6875 7.03125 5.84375 6.95312C6 6.85938 6.07812 6.74219 6.07812 6.60156C6.07812 6.49219 5.98438 6.39844 5.79688 6.32031C5.625 6.24219 5.35938 6.17969 5 6.13281C4.82812 6.13281 4.625 6.11719 4.39062 6.08594C4.17188 6.03906 3.94531 5.96875 3.71094 5.875L1.78906 4.9375C1.38281 4.75 1.07031 4.5625 0.851562 4.375C0.648438 4.1875 0.546875 3.99219 0.546875 3.78906C0.640625 3.47656 0.71875 3.16406 0.78125 2.85156C0.671875 2.53906 0.578125 2.28125 0.5 2.07812C0.4375 1.875 0.40625 1.71875 0.40625 1.60938C0.40625 1.46875 0.4375 1.35937 0.5 1.28125C0.578125 1.20313 0.679688 1.16406 0.804688 1.16406C1.24219 1.24219 1.625 1.3125 1.95312 1.375C2.10938 1.32812 2.26562 1.28125 2.42188 1.23438C2.57812 1.17187 2.73438 1.10938 2.89062 1.04688C3.26562 1.04688 3.60156 1.07812 3.89844 1.14062C4.19531 1.1875 4.42188 1.24219 4.57812 1.30469C4.79688 1.41406 5.02344 1.53125 5.25781 1.65625C5.49219 1.78125 5.71875 1.89062 5.9375 1.98438C6.125 1.95313 6.375 1.91406 6.6875 1.86719C6.78125 1.86719 6.86719 1.88281 6.94531 1.91406C7.13281 2.03906 7.35938 2.15625 7.625 2.26562C7.89062 2.35938 8.19531 2.44531 8.53906 2.52344C8.91406 2.58594 9.23438 2.65625 9.5 2.73438C9.76562 2.79688 9.97656 2.86719 10.1328 2.94531C11.7891 3.80469 13.2344 4.61719 14.4688 5.38281C15.7188 6.13281 16.75 6.86719 17.5625 7.58594C18.8438 8.69531 19.7891 9.88281 20.3984 11.1484C21.0078 12.4141 21.3125 13.7344 21.3125 15.1094C21.3125 17.2969 20.6641 19.6172 19.3672 22.0703C18.0703 24.5234 16.1406 27.1016 13.5781 29.8047C13.7969 29.7109 14.0859 29.6094 14.4453 29.5C14.8047 29.3906 15.2188 29.2578 15.6875 29.1016C16.6719 28.8828 17.6875 28.6484 18.7344 28.3984C19.3906 28.2109 19.9453 28.0078 20.3984 27.7891C20.8516 27.5703 21.2188 27.3125 21.5 27.0156ZM21.3594 27.0156L21.5 26.8516L21.5703 26.6172C21.9922 26.0391 22.7344 25.2891 23.7969 24.3672C24.8594 23.4297 25.5938 22.6719 26 22.0938C26.1562 21.8438 26.3359 21.6641 26.5391 21.5547C26.7422 21.4453 26.9453 21.3906 27.1484 21.3906C27.6953 21.3906 28.1562 21.5312 28.5312 21.8125C28.9062 22.0781 29.1562 22.4844 29.2812 23.0312C29.3906 23.5156 29.4922 24.0078 29.5859 24.5078C29.6797 24.9922 29.7578 25.4844 29.8203 25.9844C29.9297 26.2969 30.0625 26.7734 30.2188 27.4141C30.375 28.0391 30.4922 28.3984 30.5703 28.4922C30.6484 28.6484 30.7656 28.7656 30.9219 28.8438C31.0781 28.9062 31.2734 28.9375 31.5078 28.9375C31.7891 28.9375 32.0781 28.8906 32.375 28.7969C32.6719 28.6875 32.9766 28.5078 33.2891 28.2578C33.5234 28.0547 33.7656 27.8516 34.0156 27.6484C34.2812 27.4297 34.5391 27.2188 34.7891 27.0156L35.7266 29.1719C35.4766 29.4219 35.1406 29.7109 34.7188 30.0391C34.3125 30.3516 33.8203 30.7188 33.2422 31.1406C32.6016 31.6094 32.0547 31.9609 31.6016 32.1953C31.1484 32.4141 30.8047 32.5234 30.5703 32.5234C29.1484 32.5234 28.2266 32.3594 27.8047 32.0312C27.3828 31.7031 26.9141 30.7891 26.3984 29.2891C26.3359 29.1641 26.2422 29.0156 26.1172 28.8438C25.9922 28.6719 25.8516 28.4688 25.6953 28.2344C25.5078 27.875 25.3438 27.6094 25.2031 27.4375C25.0625 27.25 24.9453 27.1562 24.8516 27.1562C24.6016 27.1562 24.2656 27.3281 23.8438 27.6719C23.4219 28 22.9062 28.5 22.2969 29.1719C22.2188 28.9688 22.125 28.7266 22.0156 28.4453C21.8906 28.1641 21.7656 27.8359 21.6406 27.4609C21.6094 27.3672 21.5703 27.2812 21.5234 27.2031C21.4766 27.125 21.4219 27.0625 21.3594 27.0156ZM31.1562 8.52344C31.5469 8.52344 31.8281 8.60156 32 8.75781C32.1875 8.91406 32.2812 9.14062 32.2812 9.4375C32.1875 9.875 32.1094 10.2422 32.0469 10.5391C31.8906 11.1016 31.75 11.5625 31.625 11.9219C31.5156 12.2812 31.4297 12.5391 31.3672 12.6953C31.2266 13.0391 31.0312 13.3438 30.7812 13.6094C30.5469 13.8594 30.2578 14.0859 29.9141 14.2891C29.5547 14.5391 29.25 14.7188 29 14.8281C28.7656 14.9219 28.6016 14.9609 28.5078 14.9453C28.2422 14.9141 27.9844 14.8906 27.7344 14.875C27.5 14.8438 27.2656 14.8281 27.0312 14.8281C26.8281 14.7188 26.6641 14.5078 26.5391 14.1953C26.4297 13.8828 26.375 13.4609 26.375 12.9297C26.375 12.4609 26.6562 11.875 27.2188 11.1719C27.7969 10.4531 28.3047 10.0703 28.7422 10.0234C29.0078 9.69531 29.3203 9.32031 29.6797 8.89844C29.8359 8.78906 30.0391 8.70313 30.2891 8.64062C30.5391 8.5625 30.8281 8.52344 31.1562 8.52344ZM51.3828 27.0156L52.3203 29.1719C52.1016 29.3438 51.6172 29.4922 50.8672 29.6172C50.1328 29.7422 49.1719 29.8516 47.9844 29.9453C46.6094 31.2891 45.2344 32.4062 43.8594 33.2969C42.5 34.1875 41.1484 34.8438 39.8047 35.2656C39.4922 35.3594 39.1328 35.4609 38.7266 35.5703C38.4766 35.5703 38.2031 35.5156 37.9062 35.4062C37.6094 35.3125 37.2812 35.1719 36.9219 34.9844C36.5469 34.75 36.2578 34.5234 36.0547 34.3047C35.8516 34.0859 35.75 33.8594 35.75 33.625C35.75 33.1562 35.9766 32.7031 36.4297 32.2656C36.8828 31.8281 37.5469 31.4141 38.4219 31.0234C40.1719 30.2109 41.8984 29.3906 43.6016 28.5625C43.8516 28.5625 44.0312 28.6172 44.1406 28.7266C44.25 28.8203 44.3047 28.9453 44.3047 29.1016C44.3047 29.5234 44 29.8828 43.3906 30.1797C42.7969 30.4609 42.5 30.6641 42.5 30.7891C42.6094 30.9453 42.7031 31.0234 42.7812 31.0234C42.9844 31.0234 43.4297 30.7188 44.1172 30.1094C44.8203 29.5 45.1641 29.1172 45.1484 28.9609L45.0312 28.4219L45.0781 28.3281C45.4844 27.9688 45.7812 27.6484 45.9688 27.3672C46.1719 27.0859 46.2734 26.8594 46.2734 26.6875C46.2734 26.2969 46.0781 25.7734 45.6875 25.1172C45.2969 24.4609 44.7109 23.6719 43.9297 22.75C43.3359 22.0312 42.7422 21.3906 42.1484 20.8281C41.5547 20.25 40.9844 19.7422 40.4375 19.3047C40.2188 19.1172 40.0312 18.9375 39.875 18.7656C39.7188 18.5781 39.5938 18.4062 39.5 18.25C39.3281 17.9375 39.1875 17.6797 39.0781 17.4766C38.9844 17.2734 38.8984 17.1406 38.8203 17.0781C38.7422 16.9844 38.6328 16.875 38.4922 16.75C38.3672 16.6094 38.2109 16.4531 38.0234 16.2812C37.6953 15.9375 37.4375 15.4609 37.25 14.8516C37.0781 14.2422 36.9922 13.4844 36.9922 12.5781C36.9922 11.9844 37.0703 11.4141 37.2266 10.8672C37.3984 10.3047 37.6406 9.80469 37.9531 9.36719C38 9.27344 38.0469 9.16406 38.0938 9.03906C38.1406 8.91406 38.1953 8.77344 38.2578 8.61719C38.6172 7.88281 39.2266 7.09375 40.0859 6.25C40.9453 5.39062 42.0703 4.48438 43.4609 3.53125C43.6484 3.4375 43.875 3.3125 44.1406 3.15625C44.4062 3 44.7031 2.79688 45.0312 2.54688C45.2188 2.39062 45.4219 2.25 45.6406 2.125C45.875 2 46.1484 1.88281 46.4609 1.77344C46.8828 1.60156 47.3594 1.41406 47.8906 1.21094C48.6719 0.804688 49.3203 0.507812 49.8359 0.320312C50.3516 0.132812 50.7422 0.0390625 51.0078 0.0390625C51.5234 0.0390625 51.9062 0.195313 52.1562 0.507812C52.4219 0.820312 52.5547 1.27344 52.5547 1.86719C52.5547 2.52344 52.5 3.0625 52.3906 3.48438C52.2969 3.89062 52.1641 4.16406 51.9922 4.30469C50.1484 5.77344 48.6641 6.88281 47.5391 7.63281C46.4141 8.36719 45.625 8.73438 45.1719 8.73438C44.9531 8.73438 44.7812 8.67187 44.6562 8.54688C44.5312 8.42188 44.4688 8.23438 44.4688 7.98438C44.4688 7.5625 44.8203 7.10156 45.5234 6.60156C46.2266 6.08594 46.5703 5.69531 46.5547 5.42969L46.3438 5.28906C46.2656 5.28906 46.1719 5.3125 46.0625 5.35938C45.9688 5.40625 45.8672 5.46875 45.7578 5.54688C44.3828 6.65625 43.3438 7.65625 42.6406 8.54688C41.9531 9.42187 41.6094 10.1875 41.6094 10.8438C41.6094 11.3594 41.6953 11.8828 41.8672 12.4141C42.0547 12.9453 42.3203 13.4922 42.6641 14.0547C42.9141 14.4453 43.2734 14.9453 43.7422 15.5547C44.2266 16.1484 44.8359 16.8672 45.5703 17.7109C46.5859 18.8828 47.3672 19.7891 47.9141 20.4297C48.4609 21.0703 48.7656 21.4062 48.8281 21.4375C49.1406 21.8438 49.4062 22.25 49.625 22.6562C49.8438 23.0625 49.9922 23.4531 50.0703 23.8281C50.1484 24.125 50.2031 24.4922 50.2344 24.9297C50.2656 25.3672 50.2812 25.8984 50.2812 26.5234C50.2812 26.8828 50.3359 27.0938 50.4453 27.1562C50.5547 27.2031 50.7344 27.2266 50.9844 27.2266C51.0781 27.2266 51.1484 27.2109 51.1953 27.1797C51.2578 27.1328 51.3203 27.0781 51.3828 27.0156ZM51.3594 27.0156C51.4219 26.9688 51.4766 26.9141 51.5234 26.8516C51.5547 26.7891 51.5703 26.7109 51.5703 26.6172C51.8359 26.3984 52.1328 26.1016 52.4609 25.7266C52.8047 25.3359 53.1875 24.8828 53.6094 24.3672C53.9531 23.8984 54.3047 23.4297 54.6641 22.9609C55.0391 22.4922 55.4375 22.0234 55.8594 21.5547C56.2031 21.0859 56.5391 20.6016 56.8672 20.1016C57.2109 19.5859 57.5703 19.0859 57.9453 18.6016C58.5703 18.3047 59.0547 18.0938 59.3984 17.9688C59.7422 17.8438 59.9766 17.7812 60.1016 17.7812C60.3359 17.7812 60.5156 17.8594 60.6406 18.0156C60.7656 18.1562 60.8281 18.3672 60.8281 18.6484C60.8281 18.7422 60.8047 18.875 60.7578 19.0469C60.7109 19.2188 60.6562 19.4062 60.5938 19.6094C60.4844 19.9219 60.3594 20.2422 60.2188 20.5703C60.0938 21.1172 59.9453 21.6641 59.7734 22.2109C59.6016 22.7578 59.4375 23.2969 59.2812 23.8281C59.125 24.5 59 25.1172 58.9062 25.6797C58.8281 26.2422 58.7891 26.7578 58.7891 27.2266C58.7891 28.1016 58.8281 28.75 58.9062 29.1719C59 29.5938 59.125 29.7812 59.2812 29.7344C59.4375 29.6406 59.6328 29.5312 59.8672 29.4062C60.1016 29.2656 60.375 29.1094 60.6875 28.9375C60.9688 28.6406 61.2812 28.2734 61.625 27.8359C61.9844 27.3984 62.4141 26.8828 62.9141 26.2891C63.1953 25.8516 63.4844 25.4219 63.7812 25C63.8906 24.875 64.0156 24.7266 64.1562 24.5547C64.3125 24.3828 64.4531 24.2109 64.5781 24.0391C64.875 23.2891 65.2031 22.7344 65.5625 22.375C65.9375 22 66.3516 21.8125 66.8047 21.8125C67.2109 21.8125 67.5312 21.8672 67.7656 21.9766C68.0156 22.0703 68.1875 22.2188 68.2812 22.4219C68.3281 22.5312 68.3672 22.7188 68.3984 22.9844C68.4297 23.25 68.4453 23.6016 68.4453 24.0391C68.4453 24.2109 68.4766 24.4609 68.5391 24.7891C68.6172 25.1172 68.6562 25.3594 68.6562 25.5156C68.6562 26.0938 68.7578 26.5312 68.9609 26.8281C69.1641 27.1094 69.4766 27.25 69.8984 27.25C70.0234 27.25 70.1719 27.2266 70.3438 27.1797C70.5156 27.1328 70.6875 27.0781 70.8594 27.0156L71.7969 29.1719C70.8594 29.7344 70.0859 30.1641 69.4766 30.4609C68.8828 30.7422 68.4375 30.8828 68.1406 30.8828C67.3594 30.8828 66.7188 30.6797 66.2188 30.2734C65.7188 29.8672 65.3516 29.2656 65.1172 28.4688C65.0859 28.2812 65.0156 28.0938 64.9062 27.9062C64.8125 27.7188 64.6875 27.5312 64.5312 27.3438C64.3906 27.5 64.2266 27.6875 64.0391 27.9062C63.8672 28.125 63.6797 28.3438 63.4766 28.5625C63.0547 29.0781 62.6328 29.5859 62.2109 30.0859C61.7891 30.5703 61.3594 31.0547 60.9219 31.5391C60.375 32.1797 59.8203 32.6484 59.2578 32.9453C58.7109 33.2266 58.1953 33.3672 57.7109 33.3672C56.9922 33.3672 56.4141 33.1562 55.9766 32.7344C55.5391 32.2969 55.2578 31.6562 55.1328 30.8125C54.9922 30 54.8984 29.3672 54.8516 28.9141C54.8047 28.4609 54.7969 28.1875 54.8281 28.0938C54.7969 27.6406 54.75 27.2969 54.6875 27.0625C54.6406 26.8281 54.5625 26.7109 54.4531 26.7109L54.3125 26.7812L52.9766 28.1641C52.9297 28.2734 52.8516 28.4141 52.7422 28.5859C52.6328 28.7422 52.4844 28.9375 52.2969 29.1719C52.2344 28.9375 52.125 28.6484 51.9688 28.3047C51.8125 27.9609 51.6094 27.5312 51.3594 27.0156ZM79.8359 20.8516C79.8359 21.1641 80.0547 21.5859 80.4922 22.1172C80.9453 22.6328 81.6172 23.2734 82.5078 24.0391C83.0859 24.5234 83.6797 25 84.2891 25.4688C84.9141 25.9219 85.5312 26.3828 86.1406 26.8516C86.4062 27.0703 86.75 27.3594 87.1719 27.7188C87.5938 28.0625 88.0859 28.4688 88.6484 28.9375C89.0547 29.25 89.4766 29.5625 89.9141 29.875C90.3672 30.1875 90.8516 30.5 91.3672 30.8125C91.7109 31.0781 92.0938 31.3672 92.5156 31.6797C92.9375 31.9922 93.4219 32.3281 93.9688 32.6875C94.2812 32.875 94.5234 33.2188 94.6953 33.7188C94.8672 34.2031 94.9688 34.8359 95 35.6172L94.7891 36.2266L94.5547 36.3438C94.3984 36.3438 94.1875 36.2734 93.9219 36.1328C93.6719 36.0078 93.3516 35.8203 92.9609 35.5703C92.8828 35.5234 92.5234 35.3516 91.8828 35.0547C91.2578 34.7578 90.3516 34.3359 89.1641 33.7891C88.5078 33.5078 87.9062 33.1953 87.3594 32.8516C86.8125 32.4922 86.3125 32.1172 85.8594 31.7266C85.5938 31.4922 85.25 31.2344 84.8281 30.9531C84.4219 30.6719 83.9375 30.3672 83.375 30.0391C82.7969 29.7109 82.2969 29.3984 81.875 29.1016C81.4531 28.8047 81.1172 28.5547 80.8672 28.3516C80.0234 27.6641 79.3359 27.1406 78.8047 26.7812C78.2734 26.4219 77.9062 26.2422 77.7031 26.2422C77.5469 26.4609 77.4609 26.6875 77.4453 26.9219C77.2578 27.6562 77.0547 28.5859 76.8359 29.7109C76.6328 30.8203 76.4062 32.1172 76.1562 33.6016C76.1562 33.8672 76.1094 34.0625 76.0156 34.1875C75.9219 34.3281 75.7812 34.3984 75.5938 34.3984C74.9844 34.3984 74.5234 34.25 74.2109 33.9531C73.8984 33.6562 73.7422 33.2109 73.7422 32.6172C73.7422 31.8203 73.7891 30.9844 73.8828 30.1094C73.9922 29.2344 74.1641 28.3125 74.3984 27.3438C74.4766 26.9219 74.5312 26.5469 74.5625 26.2188C74.6094 25.875 74.6328 25.5625 74.6328 25.2812C74.6328 24.5625 74.3203 23.9453 73.6953 23.4297C73.0859 22.9141 72.7812 22.5469 72.7812 22.3281C72.7812 21.9844 72.8281 21.6875 72.9219 21.4375C73.0312 21.1719 73.1875 20.9609 73.3906 20.8047C73.9062 20.4766 74.3828 20.1641 74.8203 19.8672C74.9297 19.8047 75 19.7031 75.0312 19.5625C75.0781 19.4062 75.1016 19.1953 75.1016 18.9297C75.1016 18.7734 75.1016 18.6094 75.1016 18.4375C75.1016 18.25 75.1016 18.0781 75.1016 17.9219C75.1484 16.5312 75.1875 15.0859 75.2188 13.5859C75.2188 13.4766 75.2188 13.3047 75.2188 13.0703C75.2188 12.8359 75.2031 12.5312 75.1719 12.1562C75.1406 11.875 75.1328 11.6172 75.1484 11.3828C75.1641 11.1328 75.1719 10.9062 75.1719 10.7031C75.0781 10.3906 74.9922 10.125 74.9141 9.90625C74.8516 9.67188 74.8203 9.45313 74.8203 9.25C74.8203 9.0625 74.8359 8.77344 74.8672 8.38281C74.8984 7.97656 74.9141 7.6875 74.9141 7.51562C74.9141 7.29688 74.8906 6.99219 74.8438 6.60156C74.8125 6.21094 74.7969 5.91406 74.7969 5.71094C74.7969 5.14844 74.9219 4.60938 75.1719 4.09375C75.4375 3.57812 75.8359 3.07031 76.3672 2.57031C76.8828 2.13281 77.4062 1.80469 77.9375 1.58594C78.4844 1.35156 79.0391 1.23438 79.6016 1.23438C79.8672 1.23438 80.2578 1.25781 80.7734 1.30469C81.3047 1.33594 81.7188 1.35156 82.0156 1.35156C82.2188 1.35156 82.7734 1.52344 83.6797 1.86719C84.0391 1.89844 84.3594 1.94531 84.6406 2.00781C84.9219 2.05469 85.1484 2.10937 85.3203 2.17188C85.7109 2.35938 86.0156 2.50781 86.2344 2.61719C86.4531 2.71094 86.6094 2.76562 86.7031 2.78125C86.9688 2.875 87.1953 2.95312 87.3828 3.01562C87.5859 3.07813 87.75 3.15625 87.875 3.25C88.0781 3.34375 88.3125 3.45313 88.5781 3.57812C88.8594 3.70312 89.1719 3.84375 89.5156 4C90.0781 4.28125 90.6016 4.60938 91.0859 4.98438C91.5859 5.35938 92.0547 5.76562 92.4922 6.20312C92.9922 6.76562 93.3672 7.32031 93.6172 7.86719C93.8672 8.39844 93.9922 8.92969 93.9922 9.46094C93.9922 9.61719 93.9766 9.84375 93.9453 10.1406C93.9297 10.4219 93.8906 10.7422 93.8281 11.1016C93.7812 11.5547 93.5469 12.0469 93.125 12.5781C92.7031 13.0938 92.0938 13.6641 91.2969 14.2891C90.5938 14.8359 89.9375 15.2969 89.3281 15.6719C88.7188 16.0312 88.1562 16.2891 87.6406 16.4453C87.4375 16.5859 87.2812 16.7188 87.1719 16.8438C87.0156 17 86.6875 17.2188 86.1875 17.5C85.6875 17.7812 85.0078 18.1328 84.1484 18.5547C82.5859 19.3203 81.4766 19.8281 80.8203 20.0781C80.1641 20.3125 79.8359 20.5703 79.8359 20.8516ZM77.375 9.55469C77.6719 9.33594 77.9531 9.125 78.2188 8.92188C78.4844 8.70313 78.8281 8.59375 79.25 8.59375C79.4375 8.59375 79.6641 8.80469 79.9297 9.22656C80.2109 9.63281 80.3516 9.9375 80.3516 10.1406C80.3516 10.25 80.3125 10.5 80.2344 10.8906C80.1562 11.2812 80.0312 11.8125 79.8594 12.4844C79.5 14 79.2969 14.9531 79.25 15.3438C79.2031 15.7188 79.1016 16.3125 78.9453 17.125C78.8828 17.3281 78.8203 17.5938 78.7578 17.9219C78.7578 18.0625 78.7812 18.1641 78.8281 18.2266C78.8906 18.2891 78.9688 18.3203 79.0625 18.3203C82.1719 16.7578 83.7812 15.9453 83.8906 15.8828C84.0156 15.8516 84.1484 15.8125 84.2891 15.7656C84.4297 15.7031 84.5625 15.6406 84.6875 15.5781L85.0391 15.1328C85.9453 14.5547 86.8828 13.9375 87.8516 13.2812C88.4609 12.8125 88.9141 12.3516 89.2109 11.8984C89.5078 11.4453 89.6562 10.9922 89.6562 10.5391C89.6562 9.96094 89.3203 9.39062 88.6484 8.82812C87.9766 8.26562 86.9688 7.72656 85.625 7.21094C84.4844 6.75781 83.4453 6.42969 82.5078 6.22656C81.5703 6.00781 80.7188 5.89844 79.9531 5.89844C78.9531 5.89844 78.1953 6.07813 77.6797 6.4375C77.1797 6.78125 76.9297 7.29688 76.9297 7.98438C76.9297 8.51563 76.9688 8.92188 77.0469 9.20312C77.125 9.46875 77.2344 9.58594 77.375 9.55469Z" fill="white"/>
</svg>
