<svg width="40" height="40" viewBox="0 0 40 40" fill="none" xmlns="http://www.w3.org/2000/svg">
<path d="M20 0.0319824C8.97195 0.0319824 0.0319824 8.97195 0.0319824 20C0.0319824 31.028 8.97195 39.968 20 39.968C31.028 39.968 39.968 31.028 39.968 20C39.968 8.97195 31.028 0.0319824 20 0.0319824ZM30.3786 12.663L26.8321 29.594C26.7892 29.7988 26.6955 29.9895 26.5596 30.1486C26.4238 30.3077 26.2501 30.4302 26.0546 30.5047C25.8591 30.5792 25.648 30.6033 25.4407 30.5749C25.2334 30.5466 25.0366 30.4665 24.8683 30.3422L19.7097 26.5311L16.5844 29.4795C16.5435 29.5181 16.4953 29.5481 16.4426 29.5679C16.39 29.5877 16.3339 29.5968 16.2777 29.5946C16.2215 29.5925 16.1663 29.5792 16.1153 29.5555C16.0643 29.5318 16.0185 29.4981 15.9806 29.4565L15.9135 29.3828L16.4565 24.1275L26.2443 15.1847C26.2927 15.1406 26.3228 15.0799 26.3286 15.0146C26.3345 14.9494 26.3157 14.8843 26.2759 14.8322C26.2361 14.7802 26.1783 14.7449 26.1138 14.7334C26.0493 14.7219 25.9828 14.7349 25.9275 14.77L13.4102 22.6925L8.01918 20.8819C7.87584 20.8338 7.75091 20.7424 7.66153 20.6205C7.57215 20.4985 7.5227 20.3519 7.51996 20.2007C7.51723 20.0495 7.56134 19.9011 7.64625 19.776C7.73117 19.6509 7.85271 19.5551 7.99422 19.5018L29.087 11.556C29.2497 11.4948 29.4259 11.4784 29.5971 11.5085C29.7683 11.5387 29.9282 11.6143 30.0602 11.7274C30.1922 11.8406 30.2914 11.9871 30.3474 12.1516C30.4034 12.3162 30.4142 12.4928 30.3786 12.663Z" fill="#DCDCDC"/>
</svg>
