<svg width="40" height="40" viewBox="0 0 40 40" fill="none" xmlns="http://www.w3.org/2000/svg">
<path d="M20.0001 0.392151C14.7997 0.392151 9.8124 2.45797 6.13522 6.13515C2.45803 9.81234 0.392212 14.7997 0.392212 20C0.392212 25.2003 2.45803 30.1876 6.13522 33.8648C9.8124 37.542 14.7997 39.6078 20.0001 39.6078C25.2004 39.6078 30.1877 37.542 33.8649 33.8648C37.5421 30.1876 39.6079 25.2003 39.6079 20C39.6079 14.7997 37.5421 9.81234 33.8649 6.13515C30.1877 2.45797 25.2004 0.392151 20.0001 0.392151Z" fill="#DCDCDC"/>
<path d="M31.703 14.1579C31.7481 14.0098 31.7697 13.8726 31.7638 13.75C31.7491 13.3951 31.505 13.1373 30.9304 13.1373H28.3638C27.7157 13.1373 27.4167 13.5294 27.2422 13.9226C27.2422 13.9226 25.6422 17.2157 23.7981 19.3873C23.2001 20.0157 22.8961 20 22.5726 20C22.3991 20 21.9608 19.7902 21.9608 19.2147V14.1314C21.9608 13.451 21.7912 13.1373 21.2432 13.1373H16.6854C16.2863 13.1373 16.0785 13.451 16.0785 13.7657C16.0785 14.4196 16.9589 14.5765 17.0589 16.4088V19.9608C17.0589 20.8235 16.9089 20.9804 16.5854 20.9804C15.7128 20.9804 13.9952 18.0392 12.8452 14.1843C12.5961 13.4255 12.3471 13.1373 11.6991 13.1373H9.1079C8.35986 13.1373 8.23535 13.5039 8.23535 13.8961C8.23535 14.603 8.82359 18.4245 12.0344 22.8186C14.3628 26.0049 17.4304 27.8432 20.1461 27.8432C21.7912 27.8432 21.9599 27.4245 21.9599 26.7706V23.8569C21.9608 23.0716 22.1403 22.9412 22.6638 22.9412C23.0373 22.9412 23.7991 23.1863 25.2697 24.902C26.9657 26.8804 27.2736 27.8432 28.2461 27.8432H30.8128C31.4089 27.8432 31.751 27.5932 31.7648 27.1079C31.7677 26.9843 31.7501 26.8461 31.7099 26.6922C31.5197 26.1275 30.6471 24.7471 29.5589 23.4314C28.9559 22.703 28.3608 21.9814 28.0873 21.5892C27.904 21.3333 27.8344 21.153 27.8432 20.9804C27.852 20.799 27.9461 20.6265 28.0873 20.3853C28.0618 20.3853 31.3795 15.7275 31.703 14.1579Z" fill="black"/>
</svg>
