<svg width="40" height="40" viewBox="0 0 40 40" fill="none" xmlns="http://www.w3.org/2000/svg">
<path d="M19.9999 0.39209C14.7996 0.39209 9.81228 2.45791 6.13509 6.13509C2.45791 9.81228 0.39209 14.7996 0.39209 19.9999C0.39209 25.2003 2.45791 30.1876 6.13509 33.8648C9.81228 37.542 14.7996 39.6078 19.9999 39.6078C25.2003 39.6078 30.1876 37.542 33.8648 33.8648C37.542 30.1876 39.6078 25.2003 39.6078 19.9999C39.6078 14.7996 37.542 9.81228 33.8648 6.13509C30.1876 2.45791 25.2003 0.39209 19.9999 0.39209Z" fill="#DCDCDC"/>
<path d="M31.703 14.1578C31.7481 14.0098 31.7697 13.8725 31.7638 13.75C31.7491 13.3951 31.505 13.1372 30.9304 13.1372H28.3638C27.7157 13.1372 27.4167 13.5294 27.2422 13.9225C27.2422 13.9225 25.6422 17.2156 23.7981 19.3872C23.2001 20.0156 22.8961 20 22.5726 20C22.3991 20 21.9608 19.7901 21.9608 19.2147V14.1313C21.9608 13.4509 21.7912 13.1372 21.2432 13.1372H16.6854C16.2863 13.1372 16.0785 13.4509 16.0785 13.7656C16.0785 14.4196 16.9589 14.5764 17.0589 16.4088V19.9607C17.0589 20.8235 16.9089 20.9803 16.5854 20.9803C15.7128 20.9803 13.9952 18.0392 12.8452 14.1843C12.5961 13.4254 12.3471 13.1372 11.6991 13.1372H9.1079C8.35986 13.1372 8.23535 13.5039 8.23535 13.896C8.23535 14.6029 8.82359 18.4245 12.0344 22.8186C14.3628 26.0049 17.4304 27.8431 20.1461 27.8431C21.7912 27.8431 21.9599 27.4245 21.9599 26.7705V23.8568C21.9608 23.0715 22.1403 22.9411 22.6638 22.9411C23.0373 22.9411 23.7991 23.1862 25.2697 24.9019C26.9657 26.8803 27.2736 27.8431 28.2461 27.8431H30.8128C31.4089 27.8431 31.751 27.5931 31.7648 27.1078C31.7677 26.9843 31.7501 26.846 31.7099 26.6921C31.5197 26.1274 30.6471 24.747 29.5589 23.4313C28.9559 22.7029 28.3608 21.9813 28.0873 21.5892C27.904 21.3333 27.8344 21.1529 27.8432 20.9803C27.852 20.799 27.9461 20.6264 28.0873 20.3852C28.0618 20.3852 31.3795 15.7274 31.703 14.1578Z" fill="black"/>
</svg>
