<svg width="40" height="40" viewBox="0 0 40 40" fill="none" xmlns="http://www.w3.org/2000/svg">
<path d="M40 19.4854C40 30.2462 31.2088 38.9696 20.362 38.9696C16.9198 38.9696 13.6864 38.0892 10.8716 36.5474L0 40L3.54387 29.5432C1.75694 26.6084 0.727818 23.1624 0.727818 19.4841C0.729123 8.72338 9.51772 0 20.3646 0C31.2101 0.00260867 40 8.72469 40 19.4854ZM20.3606 3.10692C11.2577 3.10692 3.853 10.4555 3.853 19.4894C3.853 23.0737 5.02168 26.3919 6.99775 29.0919L4.9369 35.174L11.2786 33.1588C13.8872 34.8701 17.0085 35.8666 20.3606 35.8666C29.4636 35.8666 36.8709 28.5193 36.8709 19.4854C36.8735 10.4555 29.4649 3.10692 20.3606 3.10692ZM30.2788 23.9737C30.1562 23.7767 29.8353 23.6567 29.3553 23.4167C28.8766 23.1767 26.5067 22.0224 26.0671 21.8659C25.6236 21.7054 25.3028 21.6245 24.9819 22.1032C24.6649 22.5819 23.7415 23.6567 23.4584 23.9776C23.178 24.2971 22.8976 24.3376 22.4163 24.1015C21.935 23.8589 20.3828 23.358 18.5437 21.7315C17.1129 20.4637 16.1463 18.9024 15.8672 18.4237C15.5842 17.9463 15.8385 17.6881 16.0772 17.4507C16.2924 17.2355 16.5585 16.8924 16.7998 16.612C17.0411 16.3342 17.1207 16.1372 17.2811 15.8177C17.4389 15.4981 17.3594 15.2203 17.2407 14.979C17.1207 14.739 16.1594 12.3912 15.7564 11.4351C15.3559 10.4803 14.9555 10.6381 14.6738 10.6381C14.3933 10.6381 14.0725 10.599 13.7516 10.599C13.4307 10.599 12.909 10.7151 12.4694 11.1938C12.0299 11.6725 10.7855 12.8268 10.7855 15.1772C10.7855 17.5302 12.5086 19.7985 12.7499 20.1167C12.9925 20.4337 16.0811 25.4149 20.9737 27.3271C25.8689 29.2379 25.8689 28.6001 26.7506 28.5193C27.6349 28.4384 29.5992 27.3649 29.9984 26.251C30.4001 25.1319 30.4001 24.1732 30.2788 23.9737Z" fill="#DCDCDC"/>
</svg>
